<svg xmlns="http://www.w3.org/2000/svg" width="56.124" height="54.734" viewBox="0 0 56.124 54.734">
  <path id="Path_2" data-name="Path 2" d="M30.061,2.247a28.06,28.06,0,0,0-8.874,54.68c1.4.246,1.929-.6,1.929-1.333,0-.666-.035-2.876-.035-5.226-7.05,1.3-8.874-1.719-9.435-3.3a10.2,10.2,0,0,0-2.876-3.963c-.982-.526-2.385-1.824-.035-1.859a5.615,5.615,0,0,1,4.314,2.876,6,6,0,0,0,8.172,2.315,5.9,5.9,0,0,1,1.789-3.753c-6.243-.7-12.767-3.122-12.767-13.854a10.92,10.92,0,0,1,2.876-7.541,10.084,10.084,0,0,1,.281-7.436s2.35-.737,7.716,2.876a26.453,26.453,0,0,1,14.03,0c5.366-3.648,7.716-2.876,7.716-2.876a10.082,10.082,0,0,1,.281,7.436,10.856,10.856,0,0,1,2.876,7.541c0,10.768-6.559,13.153-12.8,13.854a6.645,6.645,0,0,1,1.894,5.191c0,3.753-.035,6.769-.035,7.716,0,.737.526,1.613,1.929,1.333a28.074,28.074,0,0,0-8.944-54.68Z" transform="translate(-1.999 -2.247)" fill="#afafaf"/>
</svg>
