<svg xmlns="http://www.w3.org/2000/svg" width="54.734" height="54.734" viewBox="0 0 54.734 54.734">
  <path id="Path_3" data-name="Path 3" d="M34.392,7.025A27.367,27.367,0,1,0,61.759,34.392,27.367,27.367,0,0,0,34.392,7.025Zm-7.3,40.6H21.082V28.21H27.09ZM24.057,25.668a3.582,3.582,0,1,1,3.553-3.582A3.568,3.568,0,0,1,24.057,25.668Zm25.55,21.954h-5.98V37.433c0-2.795-1.062-4.355-3.271-4.355-2.405,0-3.662,1.625-3.662,4.355v10.19H30.932V28.21H36.7v2.614a6.77,6.77,0,0,1,5.85-3.207c4.116,0,7.063,2.513,7.063,7.713Z" transform="translate(-7.025 -7.025)" fill="#afafaf"/>
</svg>
